HIERARCHY
ROOT Hips
{
	OFFSET -0.001795 -0.223333 0.028219
	CHANNELS 6 Xposition Yposition Zposition Zrotation Yrotation Xrotation 
	JOINT LeftUpLeg
	{
		OFFSET 0.069520 -0.091406 -0.006815
		CHANNELS 3 Zrotation Yrotation Xrotation
		JOINT LeftLeg
		{
			OFFSET 0.034277 -0.375199 -0.004496
			CHANNELS 3 Zrotation Yrotation Xrotation
			JOINT LeftFoot
			{
				OFFSET -0.013596 -0.397961 -0.043693
				CHANNELS 3 Zrotation Yrotation Xrotation
				JOINT LeftToe
				{
					OFFSET 0.026358 -0.055791 0.119288
					CHANNELS 3 Zrotation Yrotation Xrotation
					End Site
					{
						OFFSET 0.000000 0.000000 0.000000
					}
				}
			}
		}
	}
	JOINT RightUpLeg
	{
		OFFSET -0.067670 -0.090522 -0.004320
		CHANNELS 3 Zrotation Yrotation Xrotation
		JOINT RightLeg
		{
			OFFSET -0.038290 -0.382569 -0.008850
			CHANNELS 3 Zrotation Yrotation Xrotation
			JOINT RightFoot
			{
				OFFSET 0.015774 -0.398415 -0.042312
				CHANNELS 3 Zrotation Yrotation Xrotation
				JOINT RightToe
				{
					OFFSET -0.025372 -0.048144 0.123348
					CHANNELS 3 Zrotation Yrotation Xrotation
					End Site
					{
						OFFSET 0.000000 0.000000 0.000000
					}
				}
			}
		}
	}
	JOINT Spine
	{
		OFFSET -0.002533 0.108963 -0.026696
		CHANNELS 3 Zrotation Yrotation Xrotation
		JOINT Spine1
		{
			OFFSET 0.005487 0.135180 0.001092
			CHANNELS 3 Zrotation Yrotation Xrotation
			JOINT Spine2
			{
				OFFSET 0.001457 0.052922 0.025425
				CHANNELS 3 Zrotation Yrotation Xrotation
				JOINT Neck
				{
					OFFSET -0.002778 0.213870 -0.042857
					CHANNELS 3 Zrotation Yrotation Xrotation
					JOINT Head
					{
						OFFSET 0.005152 0.064970 0.051349
						CHANNELS 3 Zrotation Yrotation Xrotation
						End Site
						{
							OFFSET 0.000000 0.000000 0.000000
						}
					}
				}
				JOINT LeftShoulder
				{
					OFFSET 0.078845 0.121749 -0.034090
					CHANNELS 3 Zrotation Yrotation Xrotation
					JOINT LeftArm
					{
						OFFSET 0.090977 0.030469 -0.008868
						CHANNELS 3 Zrotation Yrotation Xrotation
						JOINT LeftForeArm
						{
							OFFSET 0.259612 -0.012772 -0.027456
							CHANNELS 3 Zrotation Yrotation Xrotation
							JOINT LeftHand
							{
								OFFSET 0.249234 0.008986 -0.001171
								CHANNELS 3 Zrotation Yrotation Xrotation
								End Site
								{
									OFFSET 0.000000 0.000000 0.000000
								}
							}
						}
					}
				}
				JOINT RightShoulder
				{
					OFFSET -0.081759 0.118833 -0.038615
					CHANNELS 3 Zrotation Yrotation Xrotation
					JOINT RightArm
					{
						OFFSET -0.096012 0.032551 -0.009143
						CHANNELS 3 Zrotation Yrotation Xrotation
						JOINT RightForeArm
						{
							OFFSET -0.253742 -0.013329 -0.021401
							CHANNELS 3 Zrotation Yrotation Xrotation
							JOINT RightHand
							{
								OFFSET -0.255298 0.007772 -0.005559
								CHANNELS 3 Zrotation Yrotation Xrotation
								End Site
								{
									OFFSET 0.000000 0.000000 0.000000
								}
							}
						}
					}
				}
			}
		}
	}
}
MOTION
Frames: 13
Frame Time: 0.050000
-0.048983 0.945920 -0.030868 -1.134221 -15.475569 8.601656 3.135169 -0.357496 -5.434940 1.775783 0.234459 -8.465194 1.829059 5.945755 13.760609 0.000000 0.000000 0.000000 -3.209317 1.373515 -14.008048 1.990707 -0.149903 -0.799479 5.444034 2.336214 13.557357 0.000000 0.000000 0.000000 3.672674 -0.835983 12.682265 6.277382 -2.838035 2.669092 2.230884 -1.120976 2.493383 4.447377 -2.616699 -12.237177 0.000000 0.000000 0.000000 -27.749660 -15.851628 11.225329 -53.580543 -26.956801 5.264669 2.186787 -43.584385 1.920647 0.000000 0.000000 0.000000 21.299771 18.017440 5.225026 46.516851 18.202654 3.421479 -4.859694 35.137030 -1.038445 0.000000 0.000000 0.000000 
-0.048894 0.945946 -0.031278 -1.055979 -15.274868 8.688309 3.026248 -0.372417 -5.550966 1.850619 0.238938 -8.581159 1.715438 5.797632 13.844991 0.000000 0.000000 0.000000 -3.337741 1.359026 -13.940786 2.063252 -0.162155 -1.134870 5.374635 2.170321 13.659219 0.000000 0.000000 0.000000 3.684570 -0.835833 12.528599 6.329728 -2.887948 3.383000 2.373037 -0.634824 1.932044 4.675899 -2.724850 -11.893442 0.000000 0.000000 0.000000 -27.782457 -16.148938 11.168676 -53.459339 -26.681766 5.216214 2.132432 -43.041752 1.829543 0.000000 0.000000 0.000000 21.344211 18.201233 5.522671 46.270541 18.396177 3.477124 -5.462118 34.303388 -1.123942 0.000000 0.000000 0.000000 
-0.048880 0.945796 -0.031733 -0.943912 -14.980219 8.632561 2.898671 -0.380336 -5.539463 1.909566 0.244099 -8.693556 1.554392 5.578897 13.855254 0.000000 0.000000 0.000000 -3.416182 1.336732 -13.793912 2.003257 -0.164265 -1.323368 5.231823 1.975565 13.605498 0.000000 0.000000 0.000000 3.644865 -0.837525 12.623200 6.351819 -2.913796 3.579752 2.560644 -0.479533 1.850638 4.767674 -2.794609 -11.495484 0.000000 0.000000 0.000000 -27.419885 -16.223288 11.033204 -53.687734 -26.569149 5.257857 2.261899 -41.954088 1.682837 0.000000 0.000000 0.000000 21.166113 18.583635 5.839097 46.282565 18.965292 3.666009 -6.321018 33.029281 -1.273575 0.000000 0.000000 0.000000 
-0.048955 0.945416 -0.032384 -0.909484 -14.955970 8.683869 2.839961 -0.391535 -5.672240 1.985615 0.237513 -8.654766 1.560578 5.579880 13.779695 0.000000 0.000000 0.000000 -3.422077 1.331331 -13.743752 1.971949 -0.168217 -1.598589 5.218922 1.963075 13.592581 0.000000 0.000000 0.000000 3.550476 -0.824944 12.608716 6.317161 -2.904204 3.828961 2.923363 -0.108663 1.661927 4.944932 -2.894918 -11.300651 0.000000 0.000000 0.000000 -27.519830 -16.061194 10.806729 -53.523561 -26.288475 5.136151 1.789047 -40.981824 1.763618 0.000000 0.000000 0.000000 21.101696 18.848719 6.098900 46.194201 19.523447 3.854877 -7.096868 31.679314 -1.377972 0.000000 0.000000 0.000000 
-0.049006 0.945126 -0.033118 -0.902319 -14.970423 8.812214 2.750382 -0.395800 -5.648462 2.161524 0.256207 -9.028991 1.551169 5.577613 13.889561 0.000000 0.000000 0.000000 -3.364891 1.350644 -13.900031 1.868616 -0.163908 -1.660120 5.212873 1.962865 13.569093 0.000000 0.000000 0.000000 3.459434 -0.810373 12.527330 6.330016 -2.916662 4.118475 3.082751 0.049341 1.349281 4.971151 -2.891759 -11.283984 0.000000 0.000000 0.000000 -27.429213 -15.972134 10.664538 -53.579808 -25.975593 5.044151 2.027581 -39.885904 1.589768 0.000000 0.000000 0.000000 21.030199 19.498379 6.510430 46.333231 20.271908 4.170522 -7.914189 30.279539 -1.490402 0.000000 0.000000 0.000000 
-0.048899 0.944795 -0.033924 -0.841561 -14.991726 8.902842 2.669260 -0.406607 -5.754602 2.206379 0.262328 -9.138332 1.562070 5.593465 13.902659 0.000000 0.000000 0.000000 -3.280795 1.380282 -14.145321 1.597603 -0.146385 -1.524105 5.183546 1.977646 13.448367 0.000000 0.000000 0.000000 3.295014 -0.787192 12.510707 6.225038 -2.868863 4.278244 3.312895 0.018772 1.329957 4.879361 -2.852042 -11.124180 0.000000 0.000000 0.000000 -27.544510 -15.731579 10.560568 -53.793263 -25.823029 4.992859 2.425843 -39.151747 1.419689 0.000000 0.000000 0.000000 21.141069 20.143226 6.860743 46.143753 21.179482 4.508103 -7.941489 29.245720 -1.420585 0.000000 0.000000 0.000000 
-0.048622 0.944493 -0.034716 -0.737537 -15.301933 8.968448 2.374119 -0.423777 -5.806335 2.499691 0.256329 -9.236861 1.715484 5.806021 13.962097 0.000000 0.000000 0.000000 -3.312320 1.404587 -14.351493 1.436783 -0.135996 -1.509838 5.303048 2.183402 13.412062 0.000000 0.000000 0.000000 3.285006 -0.779886 12.463040 6.031173 -2.776371 4.780930 3.325360 0.109038 0.892347 4.745386 -2.777032 -10.843190 0.000000 0.000000 0.000000 -27.686840 -15.515845 10.432023 -53.856719 -25.924596 5.085678 2.810469 -38.575488 1.253006 0.000000 0.000000 0.000000 21.353676 20.599894 7.108328 46.300874 21.958473 4.877617 -7.744990 29.040937 -1.360531 0.000000 0.000000 0.000000 
-0.048272 0.944406 -0.035550 -0.731829 -15.556963 8.935187 2.130024 -0.436161 -5.830296 2.886038 0.232749 -9.163268 1.852841 5.994018 13.977105 0.000000 0.000000 0.000000 -3.203105 1.418666 -14.410159 1.220499 -0.123266 -1.507222 5.434223 2.373766 13.439595 0.000000 0.000000 0.000000 3.134736 -0.753418 12.450865 5.919271 -2.725198 5.233760 3.467158 0.124837 0.633352 4.582680 -2.681822 -10.715769 0.000000 0.000000 0.000000 -27.552249 -15.159414 10.199321 -54.604603 -25.633938 5.089681 3.547473 -38.580776 1.018591 0.000000 0.000000 0.000000 21.260038 20.775975 7.162570 46.608862 22.378732 5.107105 -7.102992 29.477212 -1.239326 0.000000 0.000000 0.000000 
-0.047989 0.944567 -0.036556 -0.661277 -15.846593 8.917417 1.948494 -0.450906 -5.944828 3.049355 0.211453 -9.002615 1.995300 6.194308 14.067487 0.000000 0.000000 0.000000 -3.198036 1.419939 -14.385079 1.081248 -0.121261 -1.748037 5.620403 2.565967 13.615210 0.000000 0.000000 0.000000 3.075781 -0.746938 12.671552 5.867952 -2.688916 5.209752 3.267631 -0.008785 0.644658 4.522767 -2.659483 -10.685356 0.000000 0.000000 0.000000 -27.424311 -14.994353 10.154001 -55.179857 -26.123232 5.421241 4.138710 -37.960583 0.818449 0.000000 0.000000 0.000000 21.285660 21.012864 7.224689 46.707628 22.618435 5.233936 -6.168544 30.421026 -1.070636 0.000000 0.000000 0.000000 
-0.047969 0.944550 -0.037789 -0.692553 -16.150026 8.830381 1.935721 -0.447201 -5.910186 3.139046 0.200256 -8.928967 2.148364 6.407706 14.108726 0.000000 0.000000 0.000000 -3.136764 1.410319 -14.241445 1.086634 -0.128105 -2.037293 5.819338 2.782382 13.790121 0.000000 0.000000 0.000000 3.048869 -0.748307 13.074630 5.766980 -2.627475 4.886411 3.211168 -0.266561 0.870589 4.248047 -2.520092 -10.651799 0.000000 0.000000 0.000000 -27.539189 -15.021233 10.369964 -55.627708 -26.856864 5.808195 4.926371 -37.326310 0.574209 0.000000 0.000000 0.000000 21.309520 21.044702 7.107437 46.756251 22.390703 5.170080 -4.577265 31.876250 -0.747163 0.000000 0.000000 0.000000 
-0.048262 0.944873 -0.039232 -0.846408 -16.227951 8.810728 2.083326 -0.444906 -6.020148 3.243267 0.178973 -8.738726 2.194527 6.478171 14.179186 0.000000 0.000000 0.000000 -2.917820 1.407029 -14.118224 1.078532 -0.134392 -2.312301 5.951553 2.827801 14.072945 0.000000 0.000000 0.000000 3.038574 -0.749961 13.237087 5.668907 -2.580165 5.050768 3.114924 -0.670794 1.098333 4.001743 -2.392295 -10.705816 0.000000 0.000000 0.000000 -27.477063 -15.153393 10.624213 -56.146649 -27.652965 6.261228 5.700800 -36.620227 0.339792 0.000000 0.000000 0.000000 21.137219 21.111450 7.007128 47.005767 21.904580 5.022717 -3.430415 33.755816 -0.536798 0.000000 0.000000 0.000000 
-0.048931 0.945101 -0.040689 -0.999548 -16.488278 8.802460 2.214866 -0.431944 -5.959215 3.397266 0.176654 -8.807058 2.312574 6.652705 14.350585 0.000000 0.000000 0.000000 -2.813340 1.416943 -14.140292 1.315634 -0.145774 -2.386778 6.134808 2.976157 14.313599 0.000000 0.000000 0.000000 2.981723 -0.742034 13.430852 5.640297 -2.557494 4.963143 3.031912 -1.043886 1.554815 3.446928 -2.088525 -10.644173 0.000000 0.000000 0.000000 -27.307970 -15.196915 10.837922 -56.716304 -28.372911 6.677550 6.202192 -36.424634 0.224668 0.000000 0.000000 0.000000 20.956143 21.286170 6.953363 46.989700 21.532171 4.868611 -1.709694 35.638646 -0.119135 0.000000 0.000000 0.000000 
-0.049871 0.945200 -0.042068 -1.124757 -16.611621 8.687432 2.434925 -0.418102 -5.965117 3.382940 0.157708 -8.584937 2.385008 6.754492 14.352811 0.000000 0.000000 0.000000 -2.739455 1.408604 -14.032481 1.590748 -0.158351 -2.446882 6.234647 3.050769 14.461334 0.000000 0.000000 0.000000 2.923572 -0.737952 13.759373 5.498051 -2.486656 4.942307 3.033439 -1.283511 1.773395 2.824605 -1.714926 -10.651505 0.000000 0.000000 0.000000 -27.447679 -15.244534 11.020093 -56.888073 -28.413446 6.675819 5.758679 -36.769057 0.397971 0.000000 0.000000 0.000000 20.768438 21.211055 6.820055 47.191748 20.816916 4.607110 -0.427950 37.541039 0.216662 0.000000 0.000000 0.000000 
